STARTFONT 2.1
FONT -Adobe-Helvetica-Medium-R-Narrow--11-80-100-100-P-47-ISO8859-1
SIZE 8 100 100
FONTBOUNDINGBOX 10 11 -1 -2

STARTPROPERTIES 26
_DEC_DEVICE_FONTNAMES "PS=Helvetica-Narrow"
FONTNAME_REGISTRY ""
FAMILY_NAME "Helvetica"
FOUNDRY "Adobe"
WEIGHT_NAME "Medium"
SLANT "R"
SETWIDTH_NAME "Narrow"
ADD_STYLE_NAME ""
PIXEL_SIZE 11
POINT_SIZE 80
RESOLUTION_X 100
RESOLUTION_Y 100
SPACING "P"
AVERAGE_WIDTH 47
CHARSET_REGISTRY "ISO8859"
CHARSET_ENCODING "1"
CHARSET_COLLECTIONS "ASCII ISO8859-1 ADOBE-STANDARD"
FULL_NAME "Helvetica Narrow"
COPYRIGHT "Copyright (c) 1991 Adobe Systems, Inc."
CAP_HEIGHT 8
X_HEIGHT 6
WEIGHT 10
QUAD_WIDTH 5
DEFAULT_CHAR 0
FONT_DESCENT 2
FONT_ASCENT 9
ENDPROPERTIES

CHARS 190

STARTCHAR space
ENCODING 32
SWIDTH 228 0
DWIDTH 2 0
BBX 1 1 0 0
BITMAP
00
ENDCHAR

STARTCHAR exclam
ENCODING 33
SWIDTH 228 0
DWIDTH 2 0
BBX 1 8 0 0
BITMAP
80
80
80
80
80
80
00
80
ENDCHAR

STARTCHAR quotedbl
ENCODING 34
SWIDTH 291 0
DWIDTH 3 0
BBX 3 2 0 6
BITMAP
A0
A0
ENDCHAR

STARTCHAR numbersign
ENCODING 35
SWIDTH 456 0
DWIDTH 5 0
BBX 6 7 -1 0
BITMAP
28
28
7C
28
FC
50
50
ENDCHAR

STARTCHAR dollar
ENCODING 36
SWIDTH 456 0
DWIDTH 5 0
BBX 4 9 0 -1
BITMAP
20
60
90
80
60
10
90
60
40
ENDCHAR

STARTCHAR percent
ENCODING 37
SWIDTH 729 0
DWIDTH 8 0
BBX 6 7 1 0
BITMAP
48
A8
50
10
28
54
48
ENDCHAR

STARTCHAR ampersand
ENCODING 38
SWIDTH 547 0
DWIDTH 6 0
BBX 5 8 0 0
BITMAP
20
50
50
20
68
90
90
68
ENDCHAR

STARTCHAR quoteright
ENCODING 39
SWIDTH 182 0
DWIDTH 2 0
BBX 2 2 0 6
BITMAP
40
80
ENDCHAR

STARTCHAR parenleft
ENCODING 40
SWIDTH 273 0
DWIDTH 3 0
BBX 3 10 0 -2
BITMAP
20
40
40
80
80
80
80
40
40
20
ENDCHAR

STARTCHAR parenright
ENCODING 41
SWIDTH 273 0
DWIDTH 3 0
BBX 3 10 -1 -2
BITMAP
80
40
40
20
20
20
20
40
40
80
ENDCHAR

STARTCHAR asterisk
ENCODING 42
SWIDTH 319 0
DWIDTH 3 0
BBX 3 3 0 5
BITMAP
A0
40
A0
ENDCHAR

STARTCHAR plus
ENCODING 43
SWIDTH 479 0
DWIDTH 5 0
BBX 5 5 0 0
BITMAP
20
20
F8
20
20
ENDCHAR

STARTCHAR comma
ENCODING 44
SWIDTH 228 0
DWIDTH 2 0
BBX 2 3 -1 -2
BITMAP
40
40
80
ENDCHAR

STARTCHAR minus
ENCODING 45
SWIDTH 479 0
DWIDTH 5 0
BBX 4 1 0 2
BITMAP
F0
ENDCHAR

STARTCHAR period
ENCODING 46
SWIDTH 228 0
DWIDTH 2 0
BBX 1 1 0 0
BITMAP
80
ENDCHAR

STARTCHAR slash
ENCODING 47
SWIDTH 228 0
DWIDTH 2 0
BBX 3 8 -1 0
BITMAP
20
20
40
40
40
40
80
80
ENDCHAR

STARTCHAR zero
ENCODING 48
SWIDTH 456 0
DWIDTH 5 0
BBX 4 8 0 0
BITMAP
60
90
90
90
90
90
90
60
ENDCHAR

STARTCHAR one
ENCODING 49
SWIDTH 456 0
DWIDTH 5 0
BBX 2 8 1 0
BITMAP
40
C0
40
40
40
40
40
40
ENDCHAR

STARTCHAR two
ENCODING 50
SWIDTH 456 0
DWIDTH 5 0
BBX 4 8 0 0
BITMAP
60
90
10
20
40
80
80
F0
ENDCHAR

STARTCHAR three
ENCODING 51
SWIDTH 456 0
DWIDTH 5 0
BBX 4 8 0 0
BITMAP
60
90
10
60
10
10
90
60
ENDCHAR

STARTCHAR four
ENCODING 52
SWIDTH 456 0
DWIDTH 5 0
BBX 5 8 0 0
BITMAP
10
30
50
50
90
F8
10
10
ENDCHAR

STARTCHAR five
ENCODING 53
SWIDTH 456 0
DWIDTH 5 0
BBX 4 8 0 0
BITMAP
70
40
80
E0
10
10
90
60
ENDCHAR

STARTCHAR six
ENCODING 54
SWIDTH 456 0
DWIDTH 5 0
BBX 4 8 0 0
BITMAP
60
90
80
E0
90
90
90
60
ENDCHAR

STARTCHAR seven
ENCODING 55
SWIDTH 456 0
DWIDTH 5 0
BBX 4 8 0 0
BITMAP
F0
10
10
20
20
40
40
40
ENDCHAR

STARTCHAR eight
ENCODING 56
SWIDTH 456 0
DWIDTH 5 0
BBX 4 8 0 0
BITMAP
60
90
90
60
90
90
90
60
ENDCHAR

STARTCHAR nine
ENCODING 57
SWIDTH 456 0
DWIDTH 5 0
BBX 4 8 0 0
BITMAP
60
90
90
90
70
10
90
60
ENDCHAR

STARTCHAR colon
ENCODING 58
SWIDTH 228 0
DWIDTH 2 0
BBX 1 6 0 0
BITMAP
80
00
00
00
00
80
ENDCHAR

STARTCHAR semicolon
ENCODING 59
SWIDTH 228 0
DWIDTH 2 0
BBX 2 8 -1 -2
BITMAP
40
00
00
00
00
40
40
80
ENDCHAR

STARTCHAR less
ENCODING 60
SWIDTH 479 0
DWIDTH 5 0
BBX 4 5 0 0
BITMAP
10
60
80
60
10
ENDCHAR

STARTCHAR equal
ENCODING 61
SWIDTH 479 0
DWIDTH 5 0
BBX 4 3 0 1
BITMAP
F0
00
F0
ENDCHAR

STARTCHAR greater
ENCODING 62
SWIDTH 479 0
DWIDTH 5 0
BBX 4 5 0 0
BITMAP
80
60
10
60
80
ENDCHAR

STARTCHAR question
ENCODING 63
SWIDTH 456 0
DWIDTH 5 0
BBX 4 8 0 0
BITMAP
60
90
10
20
40
40
00
40
ENDCHAR

STARTCHAR at
ENCODING 64
SWIDTH 832 0
DWIDTH 9 0
BBX 9 10 0 -2
BITMAP
1E00
2100
4080
8A80
9480
A500
AD00
9600
4000
3C00
ENDCHAR

STARTCHAR A
ENCODING 65
SWIDTH 547 0
DWIDTH 6 0
BBX 5 8 0 0
BITMAP
20
20
50
50
50
F8
88
88
ENDCHAR

STARTCHAR B
ENCODING 66
SWIDTH 547 0
DWIDTH 6 0
BBX 5 8 0 0
BITMAP
F0
88
88
F0
88
88
88
F0
ENDCHAR

STARTCHAR C
ENCODING 67
SWIDTH 592 0
DWIDTH 6 0
BBX 5 8 0 0
BITMAP
70
88
80
80
80
80
88
70
ENDCHAR

STARTCHAR D
ENCODING 68
SWIDTH 592 0
DWIDTH 6 0
BBX 5 8 0 0
BITMAP
F0
88
88
88
88
88
88
F0
ENDCHAR

STARTCHAR E
ENCODING 69
SWIDTH 547 0
DWIDTH 6 0
BBX 5 8 0 0
BITMAP
F8
80
80
F8
80
80
80
F8
ENDCHAR

STARTCHAR F
ENCODING 70
SWIDTH 501 0
DWIDTH 5 0
BBX 4 8 0 0
BITMAP
F0
80
80
F0
80
80
80
80
ENDCHAR

STARTCHAR G
ENCODING 71
SWIDTH 638 0
DWIDTH 7 0
BBX 5 8 1 0
BITMAP
70
88
80
80
98
88
98
68
ENDCHAR

STARTCHAR H
ENCODING 72
SWIDTH 592 0
DWIDTH 6 0
BBX 5 8 0 0
BITMAP
88
88
88
F8
88
88
88
88
ENDCHAR

STARTCHAR I
ENCODING 73
SWIDTH 228 0
DWIDTH 2 0
BBX 1 8 0 0
BITMAP
80
80
80
80
80
80
80
80
ENDCHAR

STARTCHAR J
ENCODING 74
SWIDTH 410 0
DWIDTH 4 0
BBX 3 8 0 0
BITMAP
20
20
20
20
20
20
A0
40
ENDCHAR

STARTCHAR K
ENCODING 75
SWIDTH 547 0
DWIDTH 6 0
BBX 5 8 0 0
BITMAP
88
90
A0
E0
90
90
88
88
ENDCHAR

STARTCHAR L
ENCODING 76
SWIDTH 456 0
DWIDTH 5 0
BBX 4 8 0 0
BITMAP
80
80
80
80
80
80
80
F0
ENDCHAR

STARTCHAR M
ENCODING 77
SWIDTH 683 0
DWIDTH 7 0
BBX 5 8 1 0
BITMAP
88
88
D8
D8
A8
A8
A8
88
ENDCHAR

STARTCHAR N
ENCODING 78
SWIDTH 592 0
DWIDTH 6 0
BBX 5 8 0 0
BITMAP
88
C8
C8
A8
A8
98
98
88
ENDCHAR

STARTCHAR O
ENCODING 79
SWIDTH 638 0
DWIDTH 7 0
BBX 5 8 1 0
BITMAP
70
88
88
88
88
88
88
70
ENDCHAR

STARTCHAR P
ENCODING 80
SWIDTH 547 0
DWIDTH 6 0
BBX 5 8 0 0
BITMAP
F0
88
88
F0
80
80
80
80
ENDCHAR

STARTCHAR Q
ENCODING 81
SWIDTH 638 0
DWIDTH 7 0
BBX 5 9 1 -1
BITMAP
70
88
88
88
88
A8
98
70
08
ENDCHAR

STARTCHAR R
ENCODING 82
SWIDTH 592 0
DWIDTH 6 0
BBX 5 8 0 0
BITMAP
F0
88
88
F0
88
88
88
88
ENDCHAR

STARTCHAR S
ENCODING 83
SWIDTH 547 0
DWIDTH 6 0
BBX 5 8 0 0
BITMAP
70
88
80
70
08
88
88
70
ENDCHAR

STARTCHAR T
ENCODING 84
SWIDTH 501 0
DWIDTH 5 0
BBX 5 8 0 0
BITMAP
F8
20
20
20
20
20
20
20
ENDCHAR

STARTCHAR U
ENCODING 85
SWIDTH 592 0
DWIDTH 6 0
BBX 5 8 0 0
BITMAP
88
88
88
88
88
88
88
70
ENDCHAR

STARTCHAR V
ENCODING 86
SWIDTH 547 0
DWIDTH 6 0
BBX 5 8 0 0
BITMAP
88
88
50
50
50
50
20
20
ENDCHAR

STARTCHAR W
ENCODING 87
SWIDTH 774 0
DWIDTH 8 0
BBX 7 8 0 0
BITMAP
92
92
54
54
6C
28
28
28
ENDCHAR

STARTCHAR X
ENCODING 88
SWIDTH 547 0
DWIDTH 6 0
BBX 5 8 0 0
BITMAP
88
88
50
20
50
50
88
88
ENDCHAR

STARTCHAR Y
ENCODING 89
SWIDTH 547 0
DWIDTH 6 0
BBX 5 8 0 0
BITMAP
88
88
50
50
20
20
20
20
ENDCHAR

STARTCHAR Z
ENCODING 90
SWIDTH 501 0
DWIDTH 5 0
BBX 4 8 0 0
BITMAP
F0
10
20
40
40
80
80
F0
ENDCHAR

STARTCHAR bracketleft
ENCODING 91
SWIDTH 228 0
DWIDTH 2 0
BBX 2 10 0 -2
BITMAP
C0
80
80
80
80
80
80
80
80
C0
ENDCHAR

STARTCHAR backslash
ENCODING 92
SWIDTH 228 0
DWIDTH 2 0
BBX 3 8 -1 0
BITMAP
80
80
40
40
40
40
20
20
ENDCHAR

STARTCHAR bracketright
ENCODING 93
SWIDTH 228 0
DWIDTH 2 0
BBX 2 10 -1 -2
BITMAP
C0
40
40
40
40
40
40
40
40
C0
ENDCHAR

STARTCHAR asciicircum
ENCODING 94
SWIDTH 385 0
DWIDTH 4 0
BBX 3 4 0 4
BITMAP
40
40
A0
A0
ENDCHAR

STARTCHAR underscore
ENCODING 95
SWIDTH 456 0
DWIDTH 5 0
BBX 5 1 0 -2
BITMAP
F8
ENDCHAR

STARTCHAR quoteleft
ENCODING 96
SWIDTH 182 0
DWIDTH 2 0
BBX 2 2 0 6
BITMAP
80
40
ENDCHAR

STARTCHAR a
ENCODING 97
SWIDTH 456 0
DWIDTH 5 0
BBX 5 6 0 0
BITMAP
60
90
70
90
90
68
ENDCHAR

STARTCHAR b
ENCODING 98
SWIDTH 456 0
DWIDTH 5 0
BBX 4 8 0 0
BITMAP
80
80
A0
D0
90
90
D0
A0
ENDCHAR

STARTCHAR c
ENCODING 99
SWIDTH 410 0
DWIDTH 4 0
BBX 3 6 0 0
BITMAP
40
A0
80
80
A0
40
ENDCHAR

STARTCHAR d
ENCODING 100
SWIDTH 456 0
DWIDTH 5 0
BBX 4 8 0 0
BITMAP
10
10
50
B0
90
90
B0
50
ENDCHAR

STARTCHAR e
ENCODING 101
SWIDTH 456 0
DWIDTH 5 0
BBX 4 6 0 0
BITMAP
60
90
F0
80
90
60
ENDCHAR

STARTCHAR f
ENCODING 102
SWIDTH 228 0
DWIDTH 2 0
BBX 3 8 -1 0
BITMAP
20
40
E0
40
40
40
40
40
ENDCHAR

STARTCHAR g
ENCODING 103
SWIDTH 456 0
DWIDTH 5 0
BBX 4 8 0 -2
BITMAP
50
B0
90
90
B0
50
10
60
ENDCHAR

STARTCHAR h
ENCODING 104
SWIDTH 456 0
DWIDTH 5 0
BBX 4 8 0 0
BITMAP
80
80
E0
90
90
90
90
90
ENDCHAR

STARTCHAR i
ENCODING 105
SWIDTH 182 0
DWIDTH 2 0
BBX 1 8 0 0
BITMAP
80
00
80
80
80
80
80
80
ENDCHAR

STARTCHAR j
ENCODING 106
SWIDTH 182 0
DWIDTH 2 0
BBX 2 10 -1 -2
BITMAP
40
00
40
40
40
40
40
40
40
80
ENDCHAR

STARTCHAR k
ENCODING 107
SWIDTH 410 0
DWIDTH 4 0
BBX 3 8 0 0
BITMAP
80
80
A0
A0
C0
C0
A0
A0
ENDCHAR

STARTCHAR l
ENCODING 108
SWIDTH 182 0
DWIDTH 2 0
BBX 1 8 0 0
BITMAP
80
80
80
80
80
80
80
80
ENDCHAR

STARTCHAR m
ENCODING 109
SWIDTH 683 0
DWIDTH 7 0
BBX 5 6 1 0
BITMAP
F0
A8
A8
A8
A8
A8
ENDCHAR

STARTCHAR n
ENCODING 110
SWIDTH 456 0
DWIDTH 5 0
BBX 4 6 0 0
BITMAP
A0
D0
90
90
90
90
ENDCHAR

STARTCHAR o
ENCODING 111
SWIDTH 456 0
DWIDTH 5 0
BBX 4 6 0 0
BITMAP
60
90
90
90
90
60
ENDCHAR

STARTCHAR p
ENCODING 112
SWIDTH 456 0
DWIDTH 5 0
BBX 4 8 0 -2
BITMAP
A0
D0
90
90
D0
A0
80
80
ENDCHAR

STARTCHAR q
ENCODING 113
SWIDTH 456 0
DWIDTH 5 0
BBX 4 8 0 -2
BITMAP
50
B0
90
90
B0
50
10
10
ENDCHAR

STARTCHAR r
ENCODING 114
SWIDTH 273 0
DWIDTH 3 0
BBX 3 6 0 0
BITMAP
A0
C0
80
80
80
80
ENDCHAR

STARTCHAR s
ENCODING 115
SWIDTH 410 0
DWIDTH 4 0
BBX 3 6 0 0
BITMAP
60
80
40
20
A0
40
ENDCHAR

STARTCHAR t
ENCODING 116
SWIDTH 228 0
DWIDTH 2 0
BBX 3 8 -1 0
BITMAP
40
40
E0
40
40
40
40
60
ENDCHAR

STARTCHAR u
ENCODING 117
SWIDTH 456 0
DWIDTH 5 0
BBX 4 6 0 0
BITMAP
90
90
90
90
B0
50
ENDCHAR

STARTCHAR v
ENCODING 118
SWIDTH 410 0
DWIDTH 4 0
BBX 3 6 0 0
BITMAP
A0
A0
A0
A0
40
40
ENDCHAR

STARTCHAR w
ENCODING 119
SWIDTH 592 0
DWIDTH 6 0
BBX 5 6 0 0
BITMAP
A8
A8
A8
A8
50
50
ENDCHAR

STARTCHAR x
ENCODING 120
SWIDTH 410 0
DWIDTH 4 0
BBX 3 6 0 0
BITMAP
A0
A0
40
40
A0
A0
ENDCHAR

STARTCHAR y
ENCODING 121
SWIDTH 410 0
DWIDTH 4 0
BBX 3 8 0 -2
BITMAP
A0
A0
A0
A0
60
20
20
C0
ENDCHAR

STARTCHAR z
ENCODING 122
SWIDTH 410 0
DWIDTH 4 0
BBX 3 6 0 0
BITMAP
E0
20
40
40
80
E0
ENDCHAR

STARTCHAR braceleft
ENCODING 123
SWIDTH 274 0
DWIDTH 3 0
BBX 3 10 0 -2
BITMAP
20
40
40
40
80
40
40
40
40
20
ENDCHAR

STARTCHAR bar
ENCODING 124
SWIDTH 213 0
DWIDTH 2 0
BBX 1 8 0 0
BITMAP
80
80
80
80
80
80
80
80
ENDCHAR

STARTCHAR braceright
ENCODING 125
SWIDTH 274 0
DWIDTH 3 0
BBX 3 10 0 -2
BITMAP
80
40
40
40
20
40
40
40
40
80
ENDCHAR

STARTCHAR asciitilde
ENCODING 126
SWIDTH 479 0
DWIDTH 5 0
BBX 4 2 0 3
BITMAP
D0
B0
ENDCHAR

STARTCHAR exclamdown
ENCODING 161
SWIDTH 273 0
DWIDTH 3 0
BBX 1 8 1 -2
BITMAP
80
00
80
80
80
80
80
80
ENDCHAR

STARTCHAR cent
ENCODING 162
SWIDTH 456 0
DWIDTH 5 0
BBX 4 8 0 -1
BITMAP
20
60
B0
A0
A0
D0
60
40
ENDCHAR

STARTCHAR sterling
ENCODING 163
SWIDTH 456 0
DWIDTH 5 0
BBX 5 8 0 0
BITMAP
60
90
80
40
E0
40
48
B0
ENDCHAR

STARTCHAR currency
ENCODING 164
SWIDTH 456 0
DWIDTH 5 0
BBX 4 5 0 1
BITMAP
90
60
90
60
90
ENDCHAR

STARTCHAR yen
ENCODING 165
SWIDTH 456 0
DWIDTH 5 0
BBX 5 8 0 0
BITMAP
88
88
50
50
F8
20
F8
20
ENDCHAR

STARTCHAR brokenbar
ENCODING 166
SWIDTH 213 0
DWIDTH 2 0
BBX 1 8 0 0
BITMAP
80
80
80
00
80
80
80
80
ENDCHAR

STARTCHAR section
ENCODING 167
SWIDTH 456 0
DWIDTH 5 0
BBX 4 10 0 -2
BITMAP
60
90
C0
60
B0
D0
60
30
90
60
ENDCHAR

STARTCHAR dieresis
ENCODING 168
SWIDTH 273 0
DWIDTH 3 0
BBX 3 1 0 7
BITMAP
A0
ENDCHAR

STARTCHAR copyright
ENCODING 169
SWIDTH 604 0
DWIDTH 6 0
BBX 6 7 0 0
BITMAP
30
48
B4
A4
B4
48
30
ENDCHAR

STARTCHAR ordfeminine
ENCODING 170
SWIDTH 303 0
DWIDTH 3 0
BBX 3 5 0 3
BITMAP
E0
20
A0
00
E0
ENDCHAR

STARTCHAR guillemotleft
ENCODING 171
SWIDTH 456 0
DWIDTH 5 0
BBX 4 3 0 1
BITMAP
50
A0
50
ENDCHAR

STARTCHAR logicalnot
ENCODING 172
SWIDTH 479 0
DWIDTH 5 0
BBX 4 3 0 1
BITMAP
F0
10
10
ENDCHAR

STARTCHAR hyphen
ENCODING 173
SWIDTH 273 0
DWIDTH 3 0
BBX 2 1 0 3
BITMAP
C0
ENDCHAR

STARTCHAR registered
ENCODING 174
SWIDTH 604 0
DWIDTH 6 0
BBX 6 7 0 0
BITMAP
30
48
B4
B4
AC
48
30
ENDCHAR

STARTCHAR macron
ENCODING 175
SWIDTH 273 0
DWIDTH 3 0
BBX 3 1 0 7
BITMAP
E0
ENDCHAR

STARTCHAR degree
ENCODING 176
SWIDTH 328 0
DWIDTH 3 0
BBX 3 4 0 4
BITMAP
40
A0
A0
40
ENDCHAR

STARTCHAR plusminus
ENCODING 177
SWIDTH 479 0
DWIDTH 5 0
BBX 5 7 0 0
BITMAP
20
20
F8
20
20
00
F8
ENDCHAR

STARTCHAR twosuperior
ENCODING 178
SWIDTH 273 0
DWIDTH 3 0
BBX 3 4 0 4
BITMAP
60
A0
40
E0
ENDCHAR

STARTCHAR threesuperior
ENCODING 179
SWIDTH 273 0
DWIDTH 3 0
BBX 3 4 0 4
BITMAP
E0
40
20
C0
ENDCHAR

STARTCHAR acute
ENCODING 180
SWIDTH 273 0
DWIDTH 3 0
BBX 2 2 0 6
BITMAP
40
80
ENDCHAR

STARTCHAR mu
ENCODING 181
SWIDTH 456 0
DWIDTH 5 0
BBX 4 8 0 -2
BITMAP
90
90
90
90
B0
D0
80
80
ENDCHAR

STARTCHAR paragraph
ENCODING 182
SWIDTH 440 0
DWIDTH 5 0
BBX 4 9 0 -1
BITMAP
70
D0
D0
D0
50
50
50
50
50
ENDCHAR

STARTCHAR periodcentered
ENCODING 183
SWIDTH 228 0
DWIDTH 2 0
BBX 1 1 0 3
BITMAP
80
ENDCHAR

STARTCHAR cedilla
ENCODING 184
SWIDTH 273 0
DWIDTH 3 0
BBX 2 2 0 -2
BITMAP
40
C0
ENDCHAR

STARTCHAR onesuperior
ENCODING 185
SWIDTH 273 0
DWIDTH 3 0
BBX 2 4 0 4
BITMAP
C0
40
40
40
ENDCHAR

STARTCHAR ordmasculine
ENCODING 186
SWIDTH 299 0
DWIDTH 3 0
BBX 3 5 0 3
BITMAP
E0
A0
E0
00
E0
ENDCHAR

STARTCHAR guillemotright
ENCODING 187
SWIDTH 456 0
DWIDTH 5 0
BBX 4 3 0 1
BITMAP
A0
50
A0
ENDCHAR

STARTCHAR onequarter
ENCODING 188
SWIDTH 684 0
DWIDTH 7 0
BBX 7 8 0 0
BITMAP
C4
44
48
50
14
2C
5E
44
ENDCHAR

STARTCHAR onehalf
ENCODING 189
SWIDTH 684 0
DWIDTH 7 0
BBX 7 8 0 0
BITMAP
C4
44
48
50
16
2A
44
4E
ENDCHAR

STARTCHAR threequarters
ENCODING 190
SWIDTH 684 0
DWIDTH 7 0
BBX 7 8 0 0
BITMAP
E4
44
28
D0
14
2C
5E
44
ENDCHAR

STARTCHAR questiondown
ENCODING 191
SWIDTH 501 0
DWIDTH 5 0
BBX 4 8 0 -2
BITMAP
20
00
20
20
40
80
90
60
ENDCHAR

STARTCHAR Agrave
ENCODING 192
SWIDTH 547 0
DWIDTH 6 0
BBX 5 8 0 0
BITMAP
20
10
20
50
50
F8
88
88
ENDCHAR

STARTCHAR Aacute
ENCODING 193
SWIDTH 547 0
DWIDTH 6 0
BBX 5 8 0 0
BITMAP
20
40
20
50
50
F8
88
88
ENDCHAR

STARTCHAR Acircumflex
ENCODING 194
SWIDTH 547 0
DWIDTH 6 0
BBX 5 8 0 0
BITMAP
20
50
00
20
50
F8
88
88
ENDCHAR

STARTCHAR Atilde
ENCODING 195
SWIDTH 547 0
DWIDTH 6 0
BBX 5 8 0 0
BITMAP
D0
A0
20
50
50
F8
88
88
ENDCHAR

STARTCHAR Adieresis
ENCODING 196
SWIDTH 547 0
DWIDTH 6 0
BBX 5 8 0 0
BITMAP
50
00
20
50
50
F8
88
88
ENDCHAR

STARTCHAR Aring
ENCODING 197
SWIDTH 547 0
DWIDTH 6 0
BBX 5 9 0 0
BITMAP
20
50
20
20
50
50
F8
88
88
ENDCHAR

STARTCHAR AE
ENCODING 198
SWIDTH 820 0
DWIDTH 9 0
BBX 8 8 0 0
BITMAP
1F
18
28
2F
48
78
88
8F
ENDCHAR

STARTCHAR Ccedilla
ENCODING 199
SWIDTH 592 0
DWIDTH 6 0
BBX 5 10 0 -2
BITMAP
70
88
80
80
80
80
88
70
20
60
ENDCHAR

STARTCHAR Egrave
ENCODING 200
SWIDTH 547 0
DWIDTH 6 0
BBX 5 8 0 0
BITMAP
40
20
F8
80
F8
80
80
F8
ENDCHAR

STARTCHAR Eacute
ENCODING 201
SWIDTH 547 0
DWIDTH 6 0
BBX 5 8 0 0
BITMAP
20
40
F8
80
F8
80
80
F8
ENDCHAR

STARTCHAR Ecircumflex
ENCODING 202
SWIDTH 547 0
DWIDTH 6 0
BBX 5 8 0 0
BITMAP
40
A0
F8
80
F8
80
80
F8
ENDCHAR

STARTCHAR Edieresis
ENCODING 203
SWIDTH 547 0
DWIDTH 6 0
BBX 5 8 0 0
BITMAP
A0
00
F8
80
F8
80
80
F8
ENDCHAR

STARTCHAR Igrave
ENCODING 204
SWIDTH 228 0
DWIDTH 2 0
BBX 2 8 0 0
BITMAP
80
40
80
80
80
80
80
80
ENDCHAR

STARTCHAR Iacute
ENCODING 205
SWIDTH 228 0
DWIDTH 2 0
BBX 2 8 -1 0
BITMAP
40
80
40
40
40
40
40
40
ENDCHAR

STARTCHAR Icircumflex
ENCODING 206
SWIDTH 228 0
DWIDTH 2 0
BBX 3 8 -1 0
BITMAP
40
A0
40
40
40
40
40
40
ENDCHAR

STARTCHAR Idieresis
ENCODING 207
SWIDTH 228 0
DWIDTH 2 0
BBX 3 8 -1 0
BITMAP
A0
00
40
40
40
40
40
40
ENDCHAR

STARTCHAR Eth
ENCODING 208
SWIDTH 592 0
DWIDTH 6 0
BBX 6 8 -1 0
BITMAP
78
44
44
E4
44
44
44
78
ENDCHAR

STARTCHAR Ntilde
ENCODING 209
SWIDTH 592 0
DWIDTH 6 0
BBX 5 8 0 0
BITMAP
68
50
C0
A8
A8
98
98
88
ENDCHAR

STARTCHAR Ograve
ENCODING 210
SWIDTH 638 0
DWIDTH 7 0
BBX 5 8 1 0
BITMAP
40
20
70
88
88
88
88
70
ENDCHAR

STARTCHAR Oacute
ENCODING 211
SWIDTH 638 0
DWIDTH 7 0
BBX 5 8 1 0
BITMAP
10
20
70
88
88
88
88
70
ENDCHAR

STARTCHAR Ocircumflex
ENCODING 212
SWIDTH 638 0
DWIDTH 7 0
BBX 5 8 1 0
BITMAP
20
50
70
88
88
88
88
70
ENDCHAR

STARTCHAR Otilde
ENCODING 213
SWIDTH 638 0
DWIDTH 7 0
BBX 5 8 1 0
BITMAP
D0
A0
70
88
88
88
88
70
ENDCHAR

STARTCHAR Odieresis
ENCODING 214
SWIDTH 638 0
DWIDTH 7 0
BBX 5 8 1 0
BITMAP
50
00
70
88
88
88
88
70
ENDCHAR

STARTCHAR multiply
ENCODING 215
SWIDTH 479 0
DWIDTH 5 0
BBX 5 5 0 0
BITMAP
88
50
20
50
88
ENDCHAR

STARTCHAR Oslash
ENCODING 216
SWIDTH 638 0
DWIDTH 7 0
BBX 7 8 0 0
BITMAP
3A
44
4C
54
64
44
44
B8
ENDCHAR

STARTCHAR Ugrave
ENCODING 217
SWIDTH 592 0
DWIDTH 6 0
BBX 5 8 0 0
BITMAP
40
20
88
88
88
88
88
70
ENDCHAR

STARTCHAR Uacute
ENCODING 218
SWIDTH 592 0
DWIDTH 6 0
BBX 5 8 0 0
BITMAP
20
40
88
88
88
88
88
70
ENDCHAR

STARTCHAR Ucircumflex
ENCODING 219
SWIDTH 592 0
DWIDTH 6 0
BBX 5 8 0 0
BITMAP
20
50
88
88
88
88
88
70
ENDCHAR

STARTCHAR Udieresis
ENCODING 220
SWIDTH 592 0
DWIDTH 6 0
BBX 5 8 0 0
BITMAP
50
00
88
88
88
88
88
70
ENDCHAR

STARTCHAR Yacute
ENCODING 221
SWIDTH 547 0
DWIDTH 6 0
BBX 5 8 0 0
BITMAP
10
20
88
50
20
20
20
20
ENDCHAR

STARTCHAR Thorn
ENCODING 222
SWIDTH 547 0
DWIDTH 6 0
BBX 5 8 0 0
BITMAP
80
80
F0
88
88
F0
80
80
ENDCHAR

STARTCHAR germandbls
ENCODING 223
SWIDTH 501 0
DWIDTH 5 0
BBX 4 8 0 0
BITMAP
60
90
90
A0
90
90
90
A0
ENDCHAR

STARTCHAR agrave
ENCODING 224
SWIDTH 456 0
DWIDTH 5 0
BBX 5 8 0 0
BITMAP
40
20
60
90
70
90
90
68
ENDCHAR

STARTCHAR aacute
ENCODING 225
SWIDTH 456 0
DWIDTH 5 0
BBX 5 8 0 0
BITMAP
10
20
60
90
70
90
90
68
ENDCHAR

STARTCHAR acircumflex
ENCODING 226
SWIDTH 456 0
DWIDTH 5 0
BBX 5 8 0 0
BITMAP
20
50
60
90
70
90
90
68
ENDCHAR

STARTCHAR atilde
ENCODING 227
SWIDTH 456 0
DWIDTH 5 0
BBX 5 8 0 0
BITMAP
D0
A0
60
90
70
90
90
68
ENDCHAR

STARTCHAR adieresis
ENCODING 228
SWIDTH 456 0
DWIDTH 5 0
BBX 5 8 0 0
BITMAP
50
00
60
90
70
90
90
68
ENDCHAR

STARTCHAR aring
ENCODING 229
SWIDTH 456 0
DWIDTH 5 0
BBX 5 9 0 0
BITMAP
20
50
20
60
90
70
90
90
68
ENDCHAR

STARTCHAR ae
ENCODING 230
SWIDTH 729 0
DWIDTH 8 0
BBX 7 6 0 0
BITMAP
6C
92
7E
90
92
6C
ENDCHAR

STARTCHAR ccedilla
ENCODING 231
SWIDTH 410 0
DWIDTH 4 0
BBX 3 8 0 -2
BITMAP
40
A0
80
80
A0
40
40
C0
ENDCHAR

STARTCHAR egrave
ENCODING 232
SWIDTH 456 0
DWIDTH 5 0
BBX 4 8 0 0
BITMAP
80
40
60
90
F0
80
90
60
ENDCHAR

STARTCHAR eacute
ENCODING 233
SWIDTH 456 0
DWIDTH 5 0
BBX 4 8 0 0
BITMAP
10
20
60
90
F0
80
90
60
ENDCHAR

STARTCHAR ecircumflex
ENCODING 234
SWIDTH 456 0
DWIDTH 5 0
BBX 4 8 0 0
BITMAP
40
A0
60
90
F0
80
90
60
ENDCHAR

STARTCHAR edieresis
ENCODING 235
SWIDTH 456 0
DWIDTH 5 0
BBX 4 8 0 0
BITMAP
A0
00
60
90
F0
80
90
60
ENDCHAR

STARTCHAR igrave
ENCODING 236
SWIDTH 228 0
DWIDTH 2 0
BBX 2 8 0 0
BITMAP
80
40
80
80
80
80
80
80
ENDCHAR

STARTCHAR iacute
ENCODING 237
SWIDTH 228 0
DWIDTH 2 0
BBX 2 8 -1 0
BITMAP
40
80
40
40
40
40
40
40
ENDCHAR

STARTCHAR icircumflex
ENCODING 238
SWIDTH 228 0
DWIDTH 2 0
BBX 3 8 -1 0
BITMAP
40
A0
40
40
40
40
40
40
ENDCHAR

STARTCHAR idieresis
ENCODING 239
SWIDTH 228 0
DWIDTH 2 0
BBX 3 8 -1 0
BITMAP
A0
00
40
40
40
40
40
40
ENDCHAR

STARTCHAR eth
ENCODING 240
SWIDTH 456 0
DWIDTH 5 0
BBX 4 8 0 0
BITMAP
D0
20
60
90
90
90
90
60
ENDCHAR

STARTCHAR ntilde
ENCODING 241
SWIDTH 456 0
DWIDTH 5 0
BBX 4 8 0 0
BITMAP
D0
A0
A0
D0
90
90
90
90
ENDCHAR

STARTCHAR ograve
ENCODING 242
SWIDTH 456 0
DWIDTH 5 0
BBX 4 8 0 0
BITMAP
80
40
60
90
90
90
90
60
ENDCHAR

STARTCHAR oacute
ENCODING 243
SWIDTH 456 0
DWIDTH 5 0
BBX 4 8 0 0
BITMAP
10
20
60
90
90
90
90
60
ENDCHAR

STARTCHAR ocircumflex
ENCODING 244
SWIDTH 456 0
DWIDTH 5 0
BBX 4 8 0 0
BITMAP
20
50
60
90
90
90
90
60
ENDCHAR

STARTCHAR otilde
ENCODING 245
SWIDTH 456 0
DWIDTH 5 0
BBX 4 8 0 0
BITMAP
D0
A0
60
90
90
90
90
60
ENDCHAR

STARTCHAR odieresis
ENCODING 246
SWIDTH 456 0
DWIDTH 5 0
BBX 4 8 0 0
BITMAP
50
00
60
90
90
90
90
60
ENDCHAR

STARTCHAR divide
ENCODING 247
SWIDTH 479 0
DWIDTH 5 0
BBX 5 5 0 0
BITMAP
20
00
F8
00
20
ENDCHAR

STARTCHAR oslash
ENCODING 248
SWIDTH 501 0
DWIDTH 5 0
BBX 6 6 -1 0
BITMAP
34
48
58
68
48
B0
ENDCHAR

STARTCHAR ugrave
ENCODING 249
SWIDTH 456 0
DWIDTH 5 0
BBX 4 8 0 0
BITMAP
80
40
90
90
90
90
B0
50
ENDCHAR

STARTCHAR uacute
ENCODING 250
SWIDTH 456 0
DWIDTH 5 0
BBX 4 8 0 0
BITMAP
20
40
90
90
90
90
B0
50
ENDCHAR

STARTCHAR ucircumflex
ENCODING 251
SWIDTH 456 0
DWIDTH 5 0
BBX 4 8 0 0
BITMAP
40
A0
90
90
90
90
B0
50
ENDCHAR

STARTCHAR udieresis
ENCODING 252
SWIDTH 456 0
DWIDTH 5 0
BBX 4 8 0 0
BITMAP
A0
00
90
90
90
90
B0
50
ENDCHAR

STARTCHAR yacute
ENCODING 253
SWIDTH 410 0
DWIDTH 4 0
BBX 3 10 0 -2
BITMAP
20
40
A0
A0
A0
A0
60
20
20
C0
ENDCHAR

STARTCHAR thorn
ENCODING 254
SWIDTH 456 0
DWIDTH 5 0
BBX 4 10 0 -2
BITMAP
80
80
A0
D0
90
90
D0
A0
80
80
ENDCHAR

STARTCHAR ydieresis
ENCODING 255
SWIDTH 410 0
DWIDTH 4 0
BBX 3 10 0 -2
BITMAP
A0
00
A0
A0
A0
A0
60
20
20
C0
ENDCHAR
ENDFONT
